<?xml version="1.0" standalone="no"?>
<!DOCTYPE svg PUBLIC "-//W3C//DTD SVG 20010904//EN"
 "http://www.w3.org/TR/2001/REC-SVG-20010904/DTD/svg10.dtd">
<svg version="1.0" xmlns="http://www.w3.org/2000/svg"
 width="1749.000000pt" height="1749.000000pt" viewBox="0 0 1749.000000 1749.000000"
 preserveAspectRatio="xMidYMid meet">
<metadata>
Created by potrace 1.11, written by Peter Selinger 2001-2013
</metadata>
<g transform="translate(0.000000,1749.000000) scale(0.100000,-0.100000)"
fill="#000000" stroke="none">
<path d="M4755 13776 c-44 -7 -105 -20 -135 -28 -30 -9 -79 -19 -109 -23 -86
-10 -198 -40 -297 -78 -117 -45 -144 -59 -349 -180 -227 -134 -264 -157 -303
-191 -32 -28 -118 -84 -176 -114 -17 -9 -56 -44 -89 -78 -32 -35 -66 -66 -75
-69 -9 -3 -48 -41 -87 -86 -38 -44 -110 -112 -160 -152 -117 -94 -286 -239
-405 -348 -52 -48 -131 -114 -175 -147 -44 -33 -108 -87 -143 -120 -34 -33
-83 -77 -108 -98 -49 -40 -154 -176 -225 -289 -23 -38 -68 -101 -99 -140 -146
-181 -341 -456 -470 -665 -230 -372 -506 -914 -720 -1415 -246 -575 -479
-1343 -560 -1848 -49 -305 -81 -849 -61 -1049 84 -849 540 -1504 1432 -2058
72 -45 178 -108 237 -140 488 -269 1362 -484 2257 -555 546 -43 1479 -56 2310
-34 590 16 768 17 1180 5 329 -9 559 0 795 34 74 10 171 24 215 29 44 6 141
22 215 35 74 14 173 30 220 36 47 6 126 17 176 25 50 7 147 19 215 25 68 6
174 20 234 30 61 10 160 26 220 35 248 37 450 83 624 139 199 65 397 112 568
135 32 4 61 15 75 28 14 12 119 53 253 98 296 98 491 172 535 201 81 55 297
108 525 129 91 9 287 41 395 66 70 16 90 25 111 50 26 29 32 31 155 45 177 20
1181 31 1347 15 174 -17 334 -47 406 -77 57 -23 79 -26 215 -29 235 -5 260
-20 253 -155 -6 -124 -2 -121 -279 -258 -295 -147 -284 -142 -626 -248 -152
-47 -315 -102 -362 -123 -47 -21 -110 -46 -140 -55 -81 -23 -172 -77 -197
-117 -28 -44 -38 -54 -98 -92 -27 -18 -56 -44 -64 -58 -30 -55 19 -116 73 -91
19 9 27 8 36 -4 17 -20 39 -18 175 17 437 110 1020 360 1415 607 230 143 285
185 427 327 163 162 193 210 201 324 7 101 -10 146 -77 212 -84 82 -213 126
-496 169 -292 43 -474 72 -600 95 -161 30 -164 30 -585 60 -471 34 -655 40
-845 26 -181 -13 -575 -61 -741 -91 -139 -25 -703 -162 -807 -196 -43 -14 -90
-24 -104 -21 -17 3 -111 -22 -252 -68 -317 -102 -441 -138 -636 -185 -93 -22
-210 -54 -260 -70 -172 -57 -341 -100 -465 -120 -69 -11 -174 -29 -235 -40
-60 -11 -175 -29 -255 -40 -355 -47 -583 -82 -680 -105 -58 -13 -148 -32 -200
-40 -52 -9 -120 -22 -150 -30 -30 -7 -84 -16 -120 -19 -482 -43 -462 -42
-1175 -15 -154 6 -406 12 -560 13 -198 2 -287 6 -303 15 -29 16 -217 30 -387
31 -178 0 -316 15 -491 51 -82 17 -174 35 -204 40 -30 4 -89 20 -130 34 -121
42 -254 75 -405 100 -78 13 -375 114 -452 154 -75 40 -135 65 -273 118 -36 13
-97 42 -136 64 -39 21 -77 39 -83 39 -7 0 -81 47 -164 104 -170 115 -312 201
-414 248 -88 41 -205 110 -268 158 -27 21 -75 54 -105 73 -30 19 -86 62 -125
96 -104 90 -168 142 -283 226 -56 41 -129 99 -161 128 -33 28 -80 69 -106 91
-27 23 -53 55 -63 80 -40 101 -144 298 -176 334 -103 113 -271 796 -335 1357
-35 302 -29 846 14 1266 17 162 55 307 126 470 43 100 108 263 166 419 19 52
64 142 98 200 35 58 102 179 150 270 98 187 127 232 196 310 27 30 99 120 161
200 61 80 121 152 132 159 49 34 271 261 314 321 79 109 172 224 206 251 17
14 62 45 99 67 114 69 485 424 582 557 68 92 245 270 355 354 41 32 84 69 95
81 11 12 40 31 65 42 44 19 71 25 240 53 47 8 120 21 163 29 93 19 158 20 327
6 296 -25 333 -45 350 -180 6 -48 3 -64 -22 -120 -16 -35 -38 -96 -48 -134
-11 -38 -27 -80 -36 -95 -35 -53 -101 -135 -161 -200 -33 -36 -83 -99 -111
-139 -52 -75 -97 -111 -272 -212 -112 -64 -200 -129 -212 -156 -6 -13 -41 -46
-77 -72 -36 -27 -71 -59 -77 -73 -31 -68 -54 -138 -54 -166 0 -58 75 -123 142
-123 41 0 134 25 153 40 8 6 26 13 40 15 14 1 36 11 48 23 37 34 277 186 366
232 67 35 106 66 190 148 58 57 116 114 129 125 13 12 55 65 95 117 39 52 112
140 162 195 113 124 146 173 199 289 23 50 64 131 90 180 66 120 79 180 73
336 -5 131 -11 156 -68 275 -36 78 -160 218 -239 272 -93 64 -161 75 -470 79
-192 2 -299 -1 -355 -10z"/>
<path d="M13493 11269 c-38 -15 -68 -37 -110 -83 -32 -35 -77 -76 -100 -91
-52 -33 -91 -92 -171 -251 -83 -165 -148 -321 -178 -423 -36 -122 -99 -444
-130 -661 -14 -102 -31 -188 -36 -191 -5 -3 -57 -14 -116 -23 -120 -19 -307
-78 -403 -127 -93 -46 -207 -119 -301 -191 -45 -35 -109 -81 -141 -104 -78
-55 -317 -274 -384 -353 -65 -76 -197 -275 -294 -443 -75 -130 -223 -428 -255
-513 l-19 -50 -7 130 c-4 72 -8 472 -10 890 -3 707 -2 763 15 797 22 48 22 85
-2 128 -27 51 -74 80 -131 80 -39 0 -61 -9 -131 -51 -46 -28 -113 -73 -149
-99 -106 -78 -222 -150 -455 -280 -121 -67 -249 -141 -285 -164 -36 -23 -71
-45 -77 -50 -10 -6 -12 37 -10 201 2 205 2 209 -26 293 -16 47 -40 104 -53
128 -34 58 -111 117 -224 170 -52 25 -154 73 -226 108 -71 35 -135 64 -141 64
-6 0 -49 18 -95 40 -127 61 -175 63 -329 12 -115 -37 -179 -53 -271 -67 -53
-8 -190 -79 -256 -133 -32 -25 -91 -78 -133 -117 -41 -40 -104 -92 -140 -115
-35 -24 -84 -63 -109 -85 -25 -23 -80 -63 -123 -88 -99 -60 -347 -242 -480
-353 -81 -67 -135 -101 -259 -164 -86 -44 -159 -80 -161 -80 -2 0 -7 114 -11
254 -6 219 -10 268 -31 354 -33 136 -55 191 -107 264 -25 35 -68 108 -96 163
-59 114 -88 140 -227 199 -44 18 -105 45 -136 60 -108 50 -156 52 -363 14
-138 -25 -173 -38 -244 -87 -31 -22 -88 -49 -127 -61 -41 -12 -82 -33 -100
-49 -16 -15 -68 -43 -115 -61 -295 -115 -588 -319 -882 -613 -91 -90 -225
-335 -288 -524 -97 -292 -135 -655 -134 -1293 0 -588 13 -641 206 -896 84
-111 210 -185 433 -253 243 -74 291 -84 520 -106 121 -12 182 -13 246 -6 132
15 288 81 396 167 85 68 297 279 350 349 26 33 88 103 138 155 51 52 111 124
135 160 46 72 131 243 150 305 6 22 27 72 45 110 78 167 138 457 195 941 7 55
15 106 19 112 4 6 66 35 138 65 141 59 190 88 327 197 49 39 91 68 93 66 3 -3
-21 -67 -52 -143 -86 -208 -112 -296 -166 -553 -78 -367 -92 -478 -92 -735 0
-300 27 -448 117 -639 19 -39 44 -105 56 -146 54 -187 191 -355 355 -438 117
-59 331 -100 454 -87 142 14 354 107 523 228 167 120 747 712 857 875 84 126
193 319 241 429 22 50 56 156 76 235 19 79 49 195 66 258 27 99 32 138 37 286
5 123 11 176 20 188 25 30 172 121 346 216 94 50 236 136 318 191 130 88 147
97 147 77 0 -44 -30 -455 -45 -628 -14 -152 -15 -234 -5 -625 6 -247 16 -639
21 -870 14 -598 20 -705 41 -734 43 -60 93 -72 195 -46 69 18 103 51 103 99 0
25 6 35 25 44 14 7 35 12 46 12 11 0 33 12 48 28 24 24 28 37 34 112 4 47 25
158 47 247 21 89 44 192 50 230 15 90 157 539 224 706 116 288 346 688 532
924 61 77 261 233 409 319 l50 29 -19 -30 c-91 -139 -145 -265 -205 -475 -51
-177 -77 -303 -91 -445 -6 -60 -23 -195 -38 -300 -31 -224 -38 -537 -13 -635
22 -87 108 -302 142 -353 36 -55 142 -160 219 -217 135 -101 390 -183 570
-184 87 0 101 3 160 32 73 35 194 129 255 198 l41 45 86 -54 c160 -100 363
-149 531 -128 138 18 516 150 647 227 73 42 279 244 344 337 26 37 52 65 57
61 5 -3 60 -83 123 -177 84 -126 129 -183 168 -215 98 -79 258 -142 361 -142
73 0 191 27 283 64 l86 34 62 -49 c71 -58 278 -164 350 -179 178 -39 462 22
629 133 79 54 326 288 381 363 24 33 51 82 60 109 54 157 88 288 92 343 3 57
1 63 -21 78 -29 19 -45 11 -102 -48 -18 -18 -43 -43 -55 -56 -13 -13 -45 -41
-73 -64 -27 -22 -68 -70 -91 -107 -44 -71 -89 -105 -259 -192 -79 -41 -81 -41
-163 -35 -85 5 -142 25 -240 82 l-42 25 39 57 c21 31 53 70 70 87 18 16 46 52
64 80 17 27 49 73 71 100 59 76 119 209 186 410 74 225 90 300 90 422 0 107
-30 258 -62 310 -30 50 -105 110 -164 133 -158 59 -293 -2 -560 -250 -153
-142 -192 -187 -307 -357 -106 -158 -141 -222 -184 -348 l-38 -110 0 -245 c0
-226 2 -250 22 -310 12 -35 21 -66 19 -68 -8 -7 -102 48 -127 75 -15 15 -59
92 -98 170 -39 78 -89 171 -110 207 -22 36 -51 87 -64 113 l-25 48 69 110
c118 188 214 389 349 725 24 58 87 242 142 410 88 268 106 338 154 579 30 150
59 323 64 385 14 156 12 399 -4 476 -17 85 -81 291 -104 336 -30 58 -169 148
-247 161 -70 11 -162 -55 -378 -271 -142 -143 -362 -538 -462 -831 -60 -177
-211 -850 -240 -1069 -21 -166 -45 -471 -45 -584 1 -226 41 -429 116 -580 l46
-94 -75 -69 c-258 -237 -338 -278 -584 -299 l-152 -13 -73 38 c-90 46 -112 69
-133 141 -9 31 -27 81 -40 111 l-24 54 34 87 c100 254 148 402 221 677 25 94
59 220 75 280 40 149 53 369 51 870 -1 283 3 424 13 515 8 69 17 175 20 235
10 200 12 589 3 650 -12 82 -83 295 -126 380 -67 130 -245 276 -337 274 -22 0
-64 -9 -92 -20z m-44 -578 c59 -70 77 -118 107 -287 25 -142 26 -166 28 -544
2 -320 0 -403 -12 -435 -10 -28 -17 -121 -23 -310 -13 -436 -47 -668 -130
-916 -27 -80 -49 -154 -49 -164 0 -77 -38 109 -65 317 -9 68 -38 227 -65 353
-61 281 -92 580 -72 698 9 51 9 73 1 89 -28 52 38 588 113 918 34 152 96 330
114 330 7 0 31 -22 53 -49z m2198 -575 c23 -74 13 -477 -16 -601 -80 -354
-112 -470 -188 -700 -126 -382 -295 -811 -315 -799 -16 10 -3 556 17 734 23
210 53 435 80 595 13 77 29 176 35 220 27 189 130 477 242 679 l61 108 34 -93
c19 -52 42 -116 50 -143z m-9843 -380 c22 -13 62 -32 89 -41 37 -14 62 -35
116 -99 38 -45 99 -109 136 -144 90 -84 95 -104 102 -391 l6 -224 -139 6
c-204 9 -423 51 -517 99 -53 27 -155 131 -199 203 -43 71 -102 211 -123 291
-28 110 -13 217 35 241 140 69 182 84 223 78 23 -3 60 -2 82 4 58 15 140 4
189 -23z m2789 -52 c21 -8 48 -12 60 -9 27 7 260 -68 299 -96 15 -10 31 -19
36 -19 17 0 90 -75 116 -120 46 -77 88 -173 97 -219 5 -25 15 -52 23 -60 22
-25 36 -90 36 -172 l0 -76 -46 -13 c-25 -7 -72 -30 -105 -52 -112 -72 -241
-100 -365 -79 -102 17 -382 100 -435 128 -54 29 -95 87 -106 152 -14 80 -10
511 5 553 15 43 45 68 82 68 14 0 34 6 45 14 11 7 29 16 40 18 37 8 180 -3
218 -18z m-3723 -386 c33 -226 142 -447 300 -607 111 -111 241 -166 496 -205
154 -24 294 -29 432 -14 68 8 124 12 126 11 2 -2 -3 -37 -10 -79 -7 -42 -25
-176 -39 -297 -49 -416 -127 -627 -330 -902 -28 -38 -61 -86 -73 -105 -11 -19
-52 -65 -89 -102 -91 -90 -154 -118 -266 -118 -45 0 -110 -5 -144 -10 -52 -9
-74 -7 -135 9 -40 11 -116 23 -168 26 -108 8 -162 20 -307 69 -149 50 -171 71
-265 258 -42 84 -82 171 -88 193 -15 61 -12 248 10 575 32 468 49 618 86 750
31 109 97 286 131 351 32 62 45 75 176 173 77 58 142 106 143 106 1 0 7 -37
14 -82z m2899 -479 c62 -239 179 -335 526 -433 213 -60 275 -70 414 -63 158 7
259 30 361 81 47 23 100 46 119 49 l34 7 -7 -86 c-5 -69 -22 -135 -82 -323
-87 -268 -132 -365 -267 -569 -78 -119 -111 -158 -255 -300 -200 -197 -299
-278 -412 -336 -99 -51 -155 -70 -265 -91 -156 -29 -241 -13 -323 61 -68 60
-89 96 -119 206 -14 51 -35 113 -48 138 -51 101 -59 157 -59 415 -1 255 4 298
64 615 16 85 38 208 50 273 14 83 39 170 84 290 35 95 83 228 107 297 l44 125
7 -140 c4 -88 14 -168 27 -216z m5025 80 c6 -109 16 -167 62 -352 30 -122 65
-283 79 -357 26 -150 55 -281 120 -540 24 -96 49 -221 56 -276 13 -102 13
-102 -15 -163 -15 -33 -33 -95 -41 -137 -12 -60 -25 -91 -61 -145 -37 -57 -49
-68 -67 -64 -134 28 -291 72 -327 90 -25 13 -77 52 -116 88 -68 63 -72 69
-123 197 -43 107 -54 147 -58 209 -11 162 72 779 132 975 42 138 118 337 150
392 60 102 162 214 196 214 3 0 9 -59 13 -131z m3735 -586 c17 -14 24 -37 32
-108 16 -129 7 -195 -55 -418 -65 -230 -98 -314 -166 -422 -28 -44 -53 -87
-56 -97 -9 -30 -21 -21 -49 37 l-27 55 -2 262 -1 263 28 85 c16 47 53 136 84
198 42 87 63 118 91 137 43 29 91 32 121 8z"/>
</g>
</svg>
